<svg xmlns="http://www.w3.org/2000/svg" width="160" height="178" viewBox="0 0 160 178">
    <defs>
        <linearGradient id="a" x1="50%" x2="50%" y1="0%" y2="100%">
            <stop offset="0%" stop-color="#F9FAFC"/>
            <stop offset="100%" stop-color="#F1F2F7"/>
        </linearGradient>
        <linearGradient id="b" x1="271.186%" x2="0%" y1="0%" y2="133.665%">
            <stop offset="0%" stop-color="#EC5A07"/>
            <stop offset="100%" stop-color="#FF9000"/>
        </linearGradient>
        <linearGradient id="c" x1="152.083%" x2="30.398%" y1="-68.527%" y2="77.769%">
            <stop offset="0%" stop-color="#FFB199"/>
            <stop offset="100%" stop-color="#FF4858"/>
        </linearGradient>
        <linearGradient id="d" x1="0%" x2="112.181%" y1="133.665%" y2="-41.494%">
            <stop offset="0%" stop-color="#00CDAC"/>
            <stop offset="100%" stop-color="#8DDAD5"/>
        </linearGradient>
        <linearGradient id="e" x1="407.963%" x2="-1258.971%" y1="-551.792%" y2="847.826%">
            <stop offset="0%" stop-color="#EC5A07"/>
            <stop offset="100%" stop-color="#FF9000"/>
        </linearGradient>
    </defs>
    <g fill="none" fill-rule="evenodd">
        <path fill="url(#a)" d="M160 55.5c0 10.806-8.802 19.565-19.66 19.565h-15.032C118.684 85.823 106.764 93 93.158 93H72.842c-13.607 0-25.527-7.177-32.15-17.935H25.66C14.802 75.065 6 66.305 6 55.5c0-10.806 8.802-19.565 19.66-19.565h15.032C47.316 25.177 59.236 18 72.842 18h20.315c13.607 0 25.527 7.177 32.15 17.935h15.033c10.858 0 19.66 8.76 19.66 19.565" opacity=".805"/>
        <path fill="url(#b)" d="M2.462 60.74A2.464 2.464 0 0 0 0 63.205v.33A2.464 2.464 0 0 0 2.462 66a2.464 2.464 0 0 0 2.461-2.466v-.329a2.464 2.464 0 0 0-2.461-2.465M64 20.466v.329a2.464 2.464 0 0 1-2.462 2.465 2.464 2.464 0 0 1-2.461-2.465v-.33A2.464 2.464 0 0 1 61.538 18 2.464 2.464 0 0 1 64 20.466"/>
        <path fill="url(#c)" d="M28.455 38.788a1.32 1.32 0 0 0-1.32 1.32v.176a1.32 1.32 0 1 0 2.639 0v-.176c0-.73-.591-1.32-1.32-1.32m88.364 44.971a2.456 2.456 0 0 0-2.454 2.457v.327a2.456 2.456 0 1 0 4.909 0v-.327a2.456 2.456 0 0 0-2.455-2.457M152 25.784a2.456 2.456 0 1 1-4.91 0v-.327a2.456 2.456 0 1 1 4.91 0v.327z"/>
        <path fill="url(#d)" d="M83 53c-1.105 0-2 .876-2 1.957v26.086c0 1.081.895 1.957 2 1.957s2-.876 2-1.957V54.957C85 53.876 84.105 53 83 53m74 24c-1.105 0-2 .84-2 1.875v.25c0 1.035.895 1.875 2 1.875s2-.84 2-1.875v-.25c0-1.035-.895-1.875-2-1.875M17 13c-1.105 0-2 .84-2 1.875v.25C15 16.16 15.895 17 17 17s2-.84 2-1.875v-.25C19 13.839 18.105 13 17 13m18 52.875v.25C35 67.16 34.105 68 33 68s-2-.84-2-1.875v-.25C31 64.84 31.895 64 33 64s2 .84 2 1.875"/>
        <path fill="#CEE8FF" d="M127.85 16.028l-5-4.251a3.26 3.26 0 0 0-4.39.151L82.78 46.777a1.63 1.63 0 0 1-2.292-.014L68.179 34.45a3.26 3.26 0 0 0-4.612 0l-4.612 4.614a3.265 3.265 0 0 0 0 4.615l21.128 21.14a3.26 3.26 0 0 0 4.628-.016l43.35-43.996a3.265 3.265 0 0 0-.21-4.778M97.366 82.79V135H67.362V82.79a3.262 3.262 0 0 1 3.262-3.264h23.48a3.262 3.262 0 0 1 3.262 3.263"/>
        <path fill="#A6D4FF" d="M114.575 158.44v-9.781c0-1.8-1.469-3.26-3.281-3.26h-3.282v-9.78c0-1.801-1.47-3.26-3.282-3.26h-6.578V82.803c0-1.8-1.469-3.26-3.282-3.26h-5.578c1.813 0 3.282 1.46 3.282 3.26v49.554H61.409c-1.812 0-3.282 1.46-3.282 3.26v9.78h-3.281c-1.813 0-3.282 1.46-3.282 3.26v9.781h-3.282c-1.813 0-3.282 1.46-3.282 3.26V178h76.14v-16.3c0-1.801-1.47-3.26-3.283-3.26h-3.282zm13.868-137.562L84.82 64.833a3.297 3.297 0 0 1-4.658.016L77.7 62.403 125.738 14l2.493 2.105a3.245 3.245 0 0 1 .212 4.773"/>
        <path fill="#8BC8FF" d="M121 177.975H46v-16.004c0-1.814 1.46-3.285 3.26-3.285h2.61v-9.857c0-1.815 1.46-3.286 3.26-3.286h47.405v-9.857c0-1.815-1.46-3.286-3.26-3.286h5.706c1.8 0 3.26 1.471 3.26 3.286v9.857h2.976c1.801 0 3.261 1.47 3.261 3.286v9.857h3.261c1.801 0 3.261 1.47 3.261 3.285v16.004z"/>
        <path fill="#1E74D9" d="M115 148.754V163.4h-5.603v-14.646c0-1.852-1.521-3.354-3.397-3.354h5.603c1.876 0 3.397 1.502 3.397 3.354"/>
        <path fill="#1B95FF" d="M121 161.333V178H45v-16.667c0-1.84 1.467-3.333 3.276-3.333h69.448c1.81 0 3.276 1.492 3.276 3.333"/>
        <path fill="#1E74D9" d="M122 161.269V175h-5.603v-13.731c0-1.806-1.521-3.269-3.397-3.269h5.603c1.876 0 3.397 1.463 3.397 3.269"/>
        <path fill="#1E74D9" d="M69.983 168.94h26.034c1.348 0 2.44-1.105 2.44-2.47 0-1.364-1.092-2.47-2.44-2.47H69.983c-1.348 0-2.44 1.106-2.44 2.47 0 1.365 1.092 2.47 2.44 2.47M131 175.53c0 1.364-1.093 2.47-2.44 2.47H37.44c-1.347 0-2.44-1.106-2.44-2.47 0-1.365 1.093-2.47 2.44-2.47h91.12c1.347 0 2.44 1.105 2.44 2.47"/>
        <path fill="url(#c)" d="M61.092 62.231c-1.474.441-3.929 2.607-4.769 5.175-.141-2.386-1.656-5.385-3.323-5.817 2.034-.719 4.237-3.362 4.823-5.589-.106 2.334 2.013 5.723 3.269 6.231"/>
        <path fill="#FF8960" d="M100.092 6.231c-1.474.441-3.929 2.607-4.769 5.175C95.182 9.02 93.667 6.021 92 5.589 94.034 4.87 96.237 2.227 96.823 0c-.106 2.334 2.013 5.723 3.269 6.231"/>
        <g stroke="url(#e)" stroke-linecap="round" transform="translate(120 49)">
            <path d="M10 5.055L8 5M5.031 0L5 2M0 5l2 .054M5 10l.031-2"/>
        </g>
    </g>
</svg>
